Coordinates
version=1
nRows=49
nColumns=12
inDegrees=yes

Units are S.I. units (second, meters, Newtons, ...)
Angles are in degrees

endheader
time	SC_y	SC_z	SC_x	AC_y	AC_z	AC_x	GH_y	GH_z	GH_yy	EL_x	PS_y
       0.0              -49.03           14.4          6.339          33.66         -17.99          18.08         -61.01          18.54         -15.42          110.9          10.45
   0.01116              -49.03           14.4          6.345          33.66         -17.99          18.08         -60.99          18.54         -15.39          110.9          10.46
   0.02233              -49.02           14.4          6.353          33.67         -17.99          18.07         -60.96          18.53         -15.37          110.9          10.47
   0.03349              -49.02           14.4          6.361          33.67         -17.99          18.07         -60.93          18.53         -15.35          110.9          10.49
   0.04465              -49.01           14.4          6.369          33.68         -17.98          18.06          -60.9          18.52         -15.32          110.9           10.5
   0.05582               -49.0           14.4          6.378          33.68         -17.98          18.06         -60.87          18.52          -15.3          110.8          10.51
   0.06698               -49.0           14.4          6.387          33.69         -17.98          18.05         -60.83          18.51         -15.27          110.8          10.53
   0.07815              -48.99           14.4          6.397          33.69         -17.97          18.05          -60.8          18.51         -15.24          110.8          10.54
   0.08931              -48.98          14.39          6.408           33.7         -17.97          18.04         -60.76           18.5          -15.2          110.8          10.56
    0.1005              -48.97          14.39           6.42           33.7         -17.97          18.03         -60.72           18.5         -15.17          110.8          10.58
    0.1116              -48.96          14.39          6.432          33.71         -17.96          18.02         -60.67          18.49         -15.13          110.8          10.59
    0.1228              -48.96          14.39          6.446          33.72         -17.96          18.01         -60.62          18.48         -15.09          110.8          10.61
     0.134              -48.94          14.39           6.46          33.73         -17.95          18.01         -60.57          18.47         -15.04          110.7          10.64
    0.1451              -48.93          14.38          6.476          33.74         -17.95           18.0         -60.52          18.47          -15.0          110.7          10.66
    0.1563              -48.92          14.38          6.493          33.75         -17.94          17.99         -60.45          18.46         -14.94          110.7          10.69
    0.1675              -48.91          14.38          6.511          33.76         -17.94          17.97         -60.39          18.45         -14.89          110.7          10.71
    0.1786              -48.89          14.38          6.531          33.77         -17.93          17.96         -60.32          18.43         -14.83          110.7          10.74
    0.1898              -48.88          14.37          6.553          33.78         -17.93          17.95         -60.24          18.42         -14.76          110.6          10.78
    0.2009              -48.86          14.37          6.577          33.79         -17.92          17.93         -60.15          18.41         -14.69          110.6          10.81
    0.2121              -48.84          14.37          6.603          33.81         -17.91          17.92         -60.06           18.4         -14.61          110.6          10.85
    0.2233              -48.82          14.36          6.631          33.82          -17.9           17.9         -59.96          18.38         -14.52          110.5          10.89
    0.2344               -48.8          14.36          6.663          33.84         -17.89          17.88         -59.84          18.36         -14.43          110.5          10.94
    0.2456              -48.77          14.35          6.697          33.86         -17.88          17.86         -59.72          18.34         -14.32          110.5          10.99
    0.2568              -48.75          14.35          6.736          33.88         -17.87          17.83         -59.58          18.32          -14.2          110.4          11.05
    0.2679              -48.72          14.34          6.778          33.91         -17.86          17.81         -59.43           18.3         -14.07          110.4          11.11
    0.2791              -48.68          14.33          6.826          33.93         -17.84          17.78         -59.25          18.27         -13.93          110.3          11.19
    0.2903              -48.64          14.33           6.88          33.96         -17.83          17.74         -59.06          18.24         -13.76          110.2          11.27
    0.3014               -48.6          14.32           6.94           34.0         -17.81          17.71         -58.85          18.21         -13.58          110.2          11.36
    0.3126              -48.55          14.31          7.008          34.03         -17.79          17.66          -58.6          18.17         -13.37          110.1          11.46
    0.3237               -48.5           14.3          7.085          34.08         -17.76          17.61         -58.32          18.13         -13.14          110.0          11.57
    0.3349              -48.43          14.28          7.173          34.13         -17.74          17.56         -58.01          18.08         -12.87          109.9          11.71
    0.3461              -48.36          14.27          7.274          34.18         -17.71           17.5         -57.64          18.02         -12.56          109.7          11.86
    0.3572              -48.28          14.25           7.39          34.25         -17.67          17.42         -57.22          17.96          -12.2          109.6          12.03
    0.3684              -48.18          14.23          7.526          34.32         -17.63          17.34         -56.74          17.88         -11.79          109.4          12.24
    0.3796              -48.07          14.21          7.684          34.41         -17.58          17.24         -56.16           17.8         -11.31          109.2          12.48
    0.3907              -47.93          14.18          7.871          34.52         -17.52          17.12         -55.49          17.69         -10.74          109.0          12.76
    0.4019              -47.77          14.15          8.093          34.64         -17.45          16.98         -54.69          17.57         -10.06          108.7          13.09
    0.4131              -47.58          14.11          8.359          34.79         -17.37          16.81         -53.73          17.42         -9.244          108.4          13.49
    0.4242              -47.35          14.07          8.681          34.97         -17.27          16.61         -52.57          17.24         -8.261          108.0          13.97
    0.4354              -47.07          14.01          9.075          35.19         -17.15          16.37         -51.16          17.03          -7.06          107.5          14.57
    0.4465              -46.72          13.94           9.56          35.46          -17.0          16.06         -49.41          16.76         -5.577          106.9          15.29
    0.4577              -46.28          13.85          10.17           35.8         -16.82          15.68         -47.23          16.42         -3.728          106.2           16.2
    0.4689              -45.73          13.74          10.93          36.23         -16.58           15.2         -44.48           16.0         -1.399          105.2          17.35
      0.48              -45.04          13.61           11.9          36.77         -16.29           14.6         -40.99          15.46          1.562          104.0          18.81
    0.4912              -44.15          13.43          13.14          37.46         -15.91          13.82         -36.52          14.77          5.352          102.5          20.67
    0.5024               -43.0           13.2          14.73          38.35         -15.42          12.82         -30.79          13.89          10.22          100.5          23.07
    0.5135              -41.54          12.91          16.77          39.49         -14.79          11.54         -23.47          12.76          16.43          98.03          26.12
    0.5247               -39.7          12.54          19.32          40.92         -14.01          9.939         -14.26          11.35          24.24          94.87          29.97
    0.5359              -37.46          12.09          22.44          42.66         -13.05          7.984         -3.032          9.619          33.76          91.03          34.65
